HIERARCHY
ROOT Hips
{
	OFFSET	0.00	0.00	0.00
	CHANNELS 6 Xposition Yposition Zposition Zrotation Xrotation Yrotation
	JOINT LeftUpLeg
	{
		OFFSET	 0.126116	-0.014019	-0.065224
		CHANNELS 3 Zrotation Xrotation Yrotation
		JOINT LeftLeg
		{
			OFFSET	 0.000000	 0.000000	 0.569914
			CHANNELS 3 Zrotation Xrotation Yrotation
			JOINT LeftFoot
			{
				OFFSET	 0.000000	 0.000000	 0.544423
				CHANNELS 3 Zrotation Xrotation Yrotation
				JOINT LeftToeBase
				{
					OFFSET	 0.000000	 0.000000	 0.207117
					CHANNELS 3 Zrotation Xrotation Yrotation
					End Site
					{
						OFFSET	 0.000000	 0.000000	 0.207117
					}
				}
			}
		}
	}
	JOINT RightUpLeg
	{
		OFFSET	-0.124023	-0.008373	-0.065224
		CHANNELS 3 Zrotation Xrotation Yrotation
		JOINT RightLeg
		{
			OFFSET	 0.000000	 0.000000	 0.570047
			CHANNELS 3 Zrotation Xrotation Yrotation
			JOINT RightFoot
			{
				OFFSET	 0.000000	 0.000000	 0.544354
				CHANNELS 3 Zrotation Xrotation Yrotation
				JOINT RightToeBase
				{
					OFFSET	 0.000000	 0.000000	 0.207540
					CHANNELS 3 Zrotation Xrotation Yrotation
					End Site
					{
						OFFSET	 0.000000	 0.000000	 0.207540
					}
				}
			}
		}
	}
	JOINT Spine
	{
		OFFSET	 0.000184	-0.007763	 0.117403
		CHANNELS 3 Zrotation Xrotation Yrotation
		JOINT Spine1
		{
			OFFSET	 0.000000	 0.000000	 0.137269
			CHANNELS 3 Zrotation Xrotation Yrotation
			JOINT Spine2
			{
				OFFSET	 0.000000	 0.000000	 0.156879
				CHANNELS 3 Zrotation Xrotation Yrotation
				JOINT LeftShoulder
				{
					OFFSET	 0.080501	-0.002496	 0.160144
					CHANNELS 3 Zrotation Xrotation Yrotation
					JOINT LeftArm
					{
						OFFSET	 0.000000	 0.000000	 0.164363
						CHANNELS 3 Zrotation Xrotation Yrotation
						JOINT LeftForeArm
						{
							OFFSET	 0.000000	 0.000000	 0.364576
							CHANNELS 3 Zrotation Xrotation Yrotation
							JOINT LeftHand
							{
								OFFSET	 0.000000	 0.000000	 0.360812
								CHANNELS 3 Zrotation Xrotation Yrotation
								JOINT LeftHandIndex1
								{
									OFFSET	 0.000000	 0.000000	 0.086006
									CHANNELS 3 Zrotation Xrotation Yrotation
									JOINT LeftHandIndex2
									{
										OFFSET	 0.000000	 0.000000	 0.047236
										CHANNELS 3 Zrotation Xrotation Yrotation
										JOINT LeftHandIndex3
										{
											OFFSET	-0.004284	-0.000551	 0.038166
											CHANNELS 3 Zrotation Xrotation Yrotation
											End Site
											{
												OFFSET	-0.004284	-0.000551	 0.038166
											}
										}
									}
								}
							}
						}
					}
				}
				JOINT Neck
				{
					OFFSET	 0.000000	 0.000000	 0.176489
					CHANNELS 3 Zrotation Xrotation Yrotation
					JOINT Head
					{
						OFFSET	 0.000000	-0.001747	 0.077940
						CHANNELS 3 Zrotation Xrotation Yrotation
						End Site
						{
							OFFSET	 0.000000	-0.001747	 0.077940
						}
					}
				}
				JOINT RightShoulder
				{
					OFFSET	-0.080363	 0.000306	 0.159706
					CHANNELS 3 Zrotation Xrotation Yrotation
					JOINT RightArm
					{
						OFFSET	 0.000000	 0.000000	 0.164196
						CHANNELS 3 Zrotation Xrotation Yrotation
						JOINT RightForeArm
						{
							OFFSET	 0.000000	 0.000000	 0.365611
							CHANNELS 3 Zrotation Xrotation Yrotation
							JOINT RightHand
							{
								OFFSET	 0.000000	 0.000000	 0.360648
								CHANNELS 3 Zrotation Xrotation Yrotation
								JOINT RightHandIndex1
								{
									OFFSET	 0.000000	 0.000000	 0.069977
									CHANNELS 3 Zrotation Xrotation Yrotation
									JOINT RightHandIndex2
									{
										OFFSET	 0.000000	 0.000000	 0.052305
										CHANNELS 3 Zrotation Xrotation Yrotation
										JOINT RightHandIndex3
										{
											OFFSET	 0.009002	-0.000782	 0.042196
											CHANNELS 3 Zrotation Xrotation Yrotation
											End Site
											{
												OFFSET	 0.009002	-0.000782	 0.042196
											}
										}
									}
								}
							}
						}
					}
				}
			}
		}
	}
}
MOTION
Frames:    5
Frame Time: 0.03333334
-2.693898	-13.068620	 0.352264	-31.970660	 1.694621	 0.476894	 2.270041	-34.026820	 172.412900	-5.616725	-67.350100	-5.996218	 176.822200	 87.163380	-179.550500	-2.334470	 36.371300	-0.182305	 0.020913	-35.538480	-177.535500	 1.613871	-71.587890	 4.334773	-177.566900	 85.681940	 179.291300	 2.405388	 21.016210	-0.152862	 33.737140	 14.054470	 2.015390	-7.866698	 7.364346	-1.578583	-9.028070	 4.146453	-0.271368	-131.759300	 89.491010	-136.646600	 48.383490	 61.197330	-76.860940	 26.512410	-20.932150	-20.376700	 1.802143	 5.089624	-5.376434	-3.812334	 37.924440	-2.927599	-2.450526	 36.184240	 0.754587	-1.378229	 35.397820	-2.634230	 1.662984	 2.401096	-3.115702	-1.681001	 7.187929	 3.611268	 94.081230	 85.977130	 171.284900	-54.080000	 70.638360	 73.282490	-48.998190	-29.285580	 14.175950	-28.709070	 4.039706	 9.547363	 6.437017	 35.671460	-0.771858	 2.830251	 35.756010	-7.813440	-2.350882	 35.473990	 5.254307
-2.688912	-13.067140	 0.369595	-33.228600	 3.980356	 0.108737	 2.712527	-35.129210	 172.878800	-4.517710	-64.889340	-4.449985	 174.996900	 88.200820	-177.290900	-2.351372	 34.292120	-0.131970	 0.821787	-36.671070	-177.422100	 0.918351	-68.519720	 4.123030	-176.139500	 86.574000	 178.031400	 2.406466	 20.065260	-0.171805	 32.939110	 13.985840	 1.967311	-7.808481	 6.955801	-1.518531	-8.751245	 3.731084	-0.294843	-122.807100	 89.380710	-145.637100	 45.714160	 61.021480	-75.193530	 28.269810	-21.028020	-19.139350	 2.145713	 5.119666	-5.372344	-3.812334	 37.924440	-2.927599	-2.450526	 36.184240	 0.754587	-1.378229	 35.397820	-2.634230	 1.907638	 2.132192	-2.986134	-1.428549	 6.879049	 4.420784	 94.340740	 86.041510	 170.872800	-54.021500	 71.248280	 72.771930	-50.741730	-29.128680	 13.171360	-28.904840	 4.086835	 9.539498	 6.437017	 35.671460	-0.771858	 2.830251	 35.756010	-7.813440	-2.350882	 35.473990	 5.254307
-2.684776	-13.066830	 0.382982	-34.466300	 5.568324	-0.330652	 3.368870	-35.570680	 173.456100	-4.235137	-62.882160	-3.588238	 170.062600	 89.064350	-172.091100	-2.361899	 32.802150	-0.097079	 1.581475	-37.737870	-177.055000	-0.496911	-66.798540	 3.258163	-173.325500	 87.735230	 174.961500	 2.406976	 19.461290	-0.183776	 31.547340	 14.197470	 2.146785	-7.646878	 6.779305	-1.399181	-8.516206	 3.433614	-0.309056	-119.411300	 89.318440	-149.040900	 43.655820	 60.824840	-74.390990	 28.845990	-20.737410	-18.297910	 2.352970	 5.146608	-5.368916	-3.812334	 37.924440	-2.927599	-2.450526	 36.184240	 0.754587	-1.378229	 35.397820	-2.634230	 2.139687	 1.933966	-2.877285	-1.245117	 6.654912	 5.011946	 94.469360	 86.078790	 170.682200	-53.842160	 71.868640	 72.104590	-51.616480	-28.541070	 12.470130	-29.272680	 4.126466	 9.526265	 6.437017	 35.671460	-0.771858	 2.830251	 35.756010	-7.813440	-2.350882	 35.473990	 5.254307
-2.681928	-13.067500	 0.394885	-35.434190	 6.902306	-0.656526	 4.148533	-35.714580	 173.967800	-4.015376	-60.876900	-2.729092	 131.874000	 89.780600	-133.571100	-2.368094	 31.829620	-0.074794	 1.882364	-38.272310	-176.668200	-1.992375	-64.913510	 2.000324	-169.204500	 88.600440	 170.356300	 2.407112	 19.263530	-0.187684	 28.883600	 14.611600	 2.310906	-7.612468	 6.856104	-1.261896	-8.372838	 3.318238	-0.312283	-118.139200	 89.304510	-150.384500	 41.819750	 60.925560	-74.494830	 28.921990	-20.017450	-17.287610	 3.336130	 5.168196	-5.357049	-3.812334	 37.924440	-2.927599	-2.450526	 36.184240	 0.754587	-1.378229	 35.397820	-2.634230	 2.265051	 1.878312	-2.762692	-1.094662	 6.519792	 5.144833	 94.608030	 86.130210	 170.500100	-53.165200	 72.712200	 70.836880	-51.820820	-27.240760	 11.827950	-30.003600	 4.168087	 9.497953	 6.437017	 35.671460	-0.771858	 2.830251	 35.756010	-7.813440	-2.350882	 35.473990	 5.254307
-2.681046	-13.067540	 0.402197	-35.484180	 7.766346	-0.674114	 4.420861	-36.047150	 174.073200	-3.605281	-59.636600	-2.110788	 36.734650	 89.733120	-38.143530	-2.369227	 31.643140	-0.070566	 1.558464	-38.445970	-176.586500	-2.339961	-63.565360	 1.389861	-164.640500	 89.012850	 165.538300	 2.406971	 19.462680	-0.183744	 26.019490	 14.749510	 2.202604	-7.791949	 7.005240	-1.308551	-8.390798	 3.372436	-0.308979	-119.033400	 89.352290	-149.631000	 40.960420	 61.130080	-75.086200	 28.005870	-19.170660	-16.758160	 3.872968	 5.187357	-5.348659	-3.812334	 37.924440	-2.927599	-2.450526	 36.184240	 0.754587	-1.378229	 35.397820	-2.634230	 2.184084	 1.993069	-2.697055	-1.010891	 6.471871	 4.952888	 94.667120	 86.128750	 170.381500	-52.000240	 73.561070	 69.056780	-51.211220	-25.863000	 11.494240	-30.682560	 4.198660	 9.471776	 6.437017	 35.671460	-0.771858	 2.830251	 35.756010	-7.813440	-2.350882	 35.473990	 5.254307
